<svg xmlns="http://www.w3.org/2000/svg" viewBox="0 0 1152.13 285.3"><defs><style>.cls-1{fill:#757575;}</style></defs><title>Mesa de trabajo 4 copia 50</title><g id="logo"><path class="cls-1" d="M1138.92,129.3a13.57,13.57,0,0,1,6.5,1.71,12.16,12.16,0,0,1,4.94,4.89,13.28,13.28,0,0,1,0,13.2,12.29,12.29,0,0,1-4.89,4.9,13.3,13.3,0,0,1-13.16,0,12.35,12.35,0,0,1-4.9-4.9,13.22,13.22,0,0,1,0-13.2,12.2,12.2,0,0,1,4.95-4.89A13.57,13.57,0,0,1,1138.92,129.3Zm0,2.19a11.26,11.26,0,0,0-5.42,1.43,10.24,10.24,0,0,0-4.12,4.08,11,11,0,0,0,0,11,10.37,10.37,0,0,0,4.09,4.08,11,11,0,0,0,11,0,10.29,10.29,0,0,0,4.08-4.08,11.05,11.05,0,0,0,0-11,10.17,10.17,0,0,0-4.13-4.08A11.28,11.28,0,0,0,1138.92,131.5Zm-5.82,18.37V135.6H1138a12,12,0,0,1,3.64.39,3.55,3.55,0,0,1,1.79,1.38,3.65,3.65,0,0,1,.67,2.09,3.79,3.79,0,0,1-1.12,2.72,4.43,4.43,0,0,1-3,1.3,3.93,3.93,0,0,1,1.22.76,16.28,16.28,0,0,1,2.11,2.83l1.74,2.8h-2.8l-1.28-2.25a12.09,12.09,0,0,0-2.41-3.32,3,3,0,0,0-1.85-.49h-1.36v6.06Zm2.29-8h2.83a4.6,4.6,0,0,0,2.77-.6,2,2,0,0,0,.74-1.59,1.93,1.93,0,0,0-.36-1.14,2.12,2.12,0,0,0-1-.75,7.4,7.4,0,0,0-2.34-.25h-2.65Z"/></g><g id="Capa_4" data-name="Capa 4"><path class="cls-1" d="M307.14,122.18h22a2.45,2.45,0,0,1,2.45,2.45V243.3H304.32V125A2.82,2.82,0,0,1,307.14,122.18Z"/><path class="cls-1" d="M357.8,156.38a2.45,2.45,0,0,1,1.83-2.37q6.2-1.64,15.3-3.08a140.9,140.9,0,0,1,22-1.66q11.71,0,19.49,3.06A29.32,29.32,0,0,1,428.76,161a33.77,33.77,0,0,1,6.47,13.28,70.73,70.73,0,0,1,1.92,17.13V243.3h-26V194.53q0-12.58-3.32-17.83t-12.41-5.24q-2.8,0-5.94.26t-5.59.61v71h-26Z"/><path class="cls-1" d="M462,128.13l20.92-3.37a2.57,2.57,0,0,1,3,2.54v24.07h28.88a2.41,2.41,0,0,1,2.41,2.41v17a2.3,2.3,0,0,1-2.3,2.3h-29v32.33q0,8.22,2.88,13.11t11.62,4.89a49.73,49.73,0,0,0,8.65-.79,44.5,44.5,0,0,0,8.13-2.18l3.67,20.27A73.72,73.72,0,0,1,510.37,244a61.15,61.15,0,0,1-14.16,1.4q-10.66,0-17.65-2.88a27.67,27.67,0,0,1-11.19-8,29.9,29.9,0,0,1-5.86-12.5,73.67,73.67,0,0,1-1.66-16.25V130.64A2.54,2.54,0,0,1,462,128.13Z"/><path class="cls-1" d="M530.47,198a56.2,56.2,0,0,1,3.76-21.41,45.88,45.88,0,0,1,9.87-15.29,41.07,41.07,0,0,1,14.07-9.26,44.05,44.05,0,0,1,16.34-3.15q19.57,0,30.93,12t11.36,35.22q0,2.27-.18,5t-.35,4.81H557.21a17.29,17.29,0,0,0,7.52,12.76q6.64,4.72,17.83,4.72a75.26,75.26,0,0,0,14.07-1.31,53,53,0,0,0,11.27-3.23l3.5,21.15a36,36,0,0,1-5.59,2.1,73.27,73.27,0,0,1-7.78,1.84q-4.29.79-9.18,1.31a91.86,91.86,0,0,1-9.79.52,57.92,57.92,0,0,1-21.58-3.67,42,42,0,0,1-15.2-10,39.86,39.86,0,0,1-8.91-15.12A59.89,59.89,0,0,1,530.47,198Zm61.17-10a27,27,0,0,0-1.14-6.47,16.21,16.21,0,0,0-3-5.59,15.85,15.85,0,0,0-5.07-4,16.52,16.52,0,0,0-7.6-1.57,17.5,17.5,0,0,0-7.52,1.49,15.56,15.56,0,0,0-5.24,3.93,17.6,17.6,0,0,0-3.23,5.68,37.18,37.18,0,0,0-1.66,6.55Z"/><path class="cls-1" d="M692.83,171.91a2.49,2.49,0,0,1-3,1.93q-2.6-.6-5.74-1.24a50.87,50.87,0,0,0-10.14-1,47.38,47.38,0,0,0-5.85.44,34.57,34.57,0,0,0-5.16,1V243.3h-26V158a2.38,2.38,0,0,1,1.62-2.27q6.45-2.14,14.89-4.08a95.23,95.23,0,0,1,21.23-2.18q2.1,0,5.07.26t5.94.7q3,.44,5.94,1,1.6.33,2.94.73a2.45,2.45,0,0,1,1.7,2.84Z"/><path class="cls-1" d="M792,135.11a2.38,2.38,0,0,1,2.29,1.72q1.89,6.51,4.12,14.45,2.53,9,5.41,18.61t5.84,19.23q3,9.61,5.76,17.83,2.28-8.91,4.65-19.4t4.48-21.67q2.1-11.18,4.13-22.28,1.83-10,3.44-19.46a2.35,2.35,0,0,1,2.32-2h23.35a2.43,2.43,0,0,1,2.39,2.92q-5.94,29-13.56,58.78-8,31.29-17.32,59.42H804.38q-6.11-16.78-11.86-35.22t-11.34-37q-5.6,18.53-11.2,37T758.26,243.3H733.34q-9.31-28.14-17.29-59.42Q708.44,154,702.5,125a2.37,2.37,0,0,1,2.32-2.83h24.5a2.53,2.53,0,0,1,2.5,2.1q1.61,9.34,3.5,19.31,2.11,11.1,4.39,22.28t4.65,21.67q2.37,10.49,4.83,19.4,3.15-8.56,6.13-18.18t5.78-19.23q2.8-9.61,5.16-18.53,2.06-7.76,3.78-14.06a2.51,2.51,0,0,1,2.43-1.85Z"/><path class="cls-1" d="M904.48,148.92q11.54,0,19.22,2.62A29.89,29.89,0,0,1,936,159.06a27.66,27.66,0,0,1,6.55,11.88,58.65,58.65,0,0,1,1.92,15.55v54.18q-5.6,1.22-15.56,2.88a149.53,149.53,0,0,1-24.12,1.66,76.46,76.46,0,0,1-16.17-1.57,35.06,35.06,0,0,1-12.5-5.16,23.57,23.57,0,0,1-8-9.35,32.27,32.27,0,0,1-2.8-14.16,26.81,26.81,0,0,1,3.23-13.63,24.88,24.88,0,0,1,8.65-8.91,39.14,39.14,0,0,1,12.41-4.81,69.68,69.68,0,0,1,14.51-1.49,82.88,82.88,0,0,1,9,.44,40.49,40.49,0,0,1,6.38,1.14v-2.45q0-6.64-4-10.66t-14-4a89.27,89.27,0,0,0-13.11,1,63,63,0,0,0-8.35,1.78,2.59,2.59,0,0,1-3.31-2.06l-2.5-15.8a2.49,2.49,0,0,1,1.82-2.8q1.57-.42,3.51-.87,3.41-.79,7.43-1.4t8.48-1Q899.94,148.92,904.48,148.92Zm2.1,76.2q3.84,0,7.34-.17a50.14,50.14,0,0,0,5.59-.52V204.67q-1.57-.35-4.72-.7a52.74,52.74,0,0,0-5.77-.35,51.91,51.91,0,0,0-6.9.44,18.08,18.08,0,0,0-5.68,1.66A9.73,9.73,0,0,0,892.6,209a9.23,9.23,0,0,0-1.4,5.24q0,6.12,4.11,8.48T906.58,225.12Z"/><path class="cls-1" d="M1024,172a2.45,2.45,0,0,1-3,1.89q-2.61-.6-5.76-1.25a50.87,50.87,0,0,0-10.14-1,47.38,47.38,0,0,0-5.86.44,34.57,34.57,0,0,0-5.16,1V243.3h-26V158.06a2.5,2.5,0,0,1,1.7-2.38q6.42-2.13,14.81-4.05a95.23,95.23,0,0,1,21.24-2.18q2.1,0,5.07.26t5.94.7q3,.44,5.94,1,1.53.32,2.82.7a2.59,2.59,0,0,1,1.8,3Z"/><path class="cls-1" d="M1035.74,198a56.2,56.2,0,0,1,3.76-21.41,45.88,45.88,0,0,1,9.87-15.29,41.08,41.08,0,0,1,14.07-9.26,44.06,44.06,0,0,1,16.34-3.15q19.57,0,30.93,12t11.36,35.22q0,2.27-.18,5-.05.81-.1,1.57a3.48,3.48,0,0,1-3.48,3.24h-55.83a17.29,17.29,0,0,0,7.52,12.76q6.64,4.72,17.83,4.72a75.26,75.26,0,0,0,14.07-1.31,63.11,63.11,0,0,0,8.44-2.14,2.56,2.56,0,0,1,3.34,2l2.62,15.84a2.85,2.85,0,0,1-1.77,3.13q-1.51.58-3.45,1.17a73.29,73.29,0,0,1-7.78,1.84q-4.28.79-9.18,1.31a91.85,91.85,0,0,1-9.79.52,57.93,57.93,0,0,1-21.58-3.67,42,42,0,0,1-15.21-10,39.88,39.88,0,0,1-8.91-15.12A59.89,59.89,0,0,1,1035.74,198Zm61.17-10a27,27,0,0,0-1.14-6.47,16.2,16.2,0,0,0-3-5.59,15.85,15.85,0,0,0-5.07-4,16.52,16.52,0,0,0-7.6-1.57,17.49,17.49,0,0,0-7.52,1.49,15.54,15.54,0,0,0-5.24,3.93,17.6,17.6,0,0,0-3.23,5.68,37.28,37.28,0,0,0-1.66,6.55Z"/><path class="cls-1" d="M0,34.46A34.46,34.46,0,1,0,34.47,0,34.47,34.47,0,0,0,0,34.46Z"/><path class="cls-1" d="M108.37,260a2.3,2.3,0,0,1-.09.64l-.2.5h0c-3.57,9.06-10,17.27-18.95,21.17a36,36,0,0,1-14.48,3,36.41,36.41,0,0,1-5.8-.46l-.62-.1a45.48,45.48,0,0,1-8-2.12C12.25,265,11.59,171.9,11.59,166.8V91.17a8.42,8.42,0,0,1,8.5-8.5H51.72c3.46,0,8.5,2.89,8.5,8.5,0,0-1.86,72.63,0,102,.46,7.31,1.15,14.74,2.17,21.88,2.15,15.31,5.76,29.33,11.66,38.17l0,0a28.4,28.4,0,0,0,3.42,4.26h0A17.78,17.78,0,0,0,89.12,263c.72.07,1.45,0,2.18,0a20.06,20.06,0,0,0,12.92-4.7l.33-.28a2.37,2.37,0,0,1,1.41-.46A2.41,2.41,0,0,1,108.37,260Z"/><path class="cls-1" d="M206.8,82.66H175.17a8.4,8.4,0,0,0-8.5,8.5c0,4,.83,83.08,0,111.68-.36,4.35-.82,8.55-1.41,12.47-1.6,10.68-4.16,19.26-8.13,23,0,0-.75.65-.84.72s-.38.26-.46.3-.78.42-.88.46a6.93,6.93,0,0,1-4.91.17l-.29-.12a8.22,8.22,0,0,1-2.74-2l0,0c-3.68-3.94-6.08-12.22-7.63-22.44-.59-3.91-1-8.1-1.36-12.45,0,0-.22-109.6-.22-111.75,0-2.94-2-8.5-8.5-8.5-1.3-.09-30.59,0-31.63,0-5.34,0-8.5,3.72-8.5,8.5,0,1.59,0,124.76,0,124.76s-.13,3.62,0,7c0,2.87,0,5.38.11,7.56v.11c0,.24,0,.47,0,.71a15,15,0,0,0,.19,2.27v.12h0a14.94,14.94,0,0,0,14.74,12.55h.1c3.68,0,8.91-.32,8.91-.32,1.28-.07,2.64.52,2.91,3.19,1.83,14.9,8.92,27.56,21.68,33.16a36,36,0,0,0,14.51,3,36.64,36.64,0,0,0,6-.49v0a45.83,45.83,0,0,0,8.44-2.16c41-14.8,47.59-84.73,48.63-108.31V91.17C215.3,87.19,211.71,82.62,206.8,82.66Z"/></g></svg>
