<svg xmlns="http://www.w3.org/2000/svg" xmlns:xlink="http://www.w3.org/1999/xlink" version="1.1" id="Capa_1" x="0px" y="0px" viewBox="0 20 50 75" style="enable-background:new 0 20 50 75;" xml:space="preserve">
<style type="text/css">
	.st0{fill:#757575;}
</style>
<g>
	
	<g>
		<path class="st0" d="M18.6,35.3h1.2V38h11.9l0-2.8h1.7c0.3,0,0.6-0.3,0.6-0.6v-4.2c0-0.3-0.3-0.6-0.6-0.6H18.6    c-0.3,0-0.6,0.3-0.6,0.6v4.2C18.1,35,18.3,35.3,18.6,35.3z" transform="translate(0, 1.7)"/>
		<rect class="st0" x="19.8" y="52.2" width="11.9" height="6"/>
		<path class="st0" d="M13.3,58.1V70h12.6h1.8c2.2,0,4.1-1.8,4.1-4.1v-0.1v-3.7v-4.1h-4.1H13.3z"/>
		<path class="st0" d="M0.7,64.1v1.8c0,2.2,1.8,4.1,4.1,4.1h0.1h3.7h4.1v-4.1V51.8H0.7V64.1z" transform="translate(0.7,0)"/>
		<path class="st0" d="M39.7,37.3h-4.4c-0.2,0-0.4,0.2-0.4,0.4V39h-3.1V39h-4.1H6.5H4.7c-2.2,0-4.1,1.8-4.1,4.1v0.1v3.7v4.1h4.1    h22.9h2.9h1.1h3.1v1.8c0,0.2,0.2,0.4,0.4,0.4h4.4c0.2,0,0.4-0.2,0.4-0.4V37.7C40.1,37.4,39.9,37.3,39.7,37.3z" transform="translate(.8,1)"/>
	</g>
</g>
</svg>
